<svg width="25" height="24" viewBox="0 0 25 24" fill="none" xmlns="http://www.w3.org/2000/svg">
<path d="M4.47556 3.64585L3.99223 1.22919H1.57556L4.47556 3.64585ZM4.47556 3.64585H23.3256L18.4922 13.3125H6.4089M4.47556 3.64585L6.4089 13.3125M6.4089 13.3125L3.63819 16.0832C2.87694 16.8445 3.41585 18.1459 4.49248 18.1459H18.4922M18.4922 18.1459C17.8513 18.1459 17.2366 18.4005 16.7834 18.8537C16.3302 19.3069 16.0756 19.9216 16.0756 20.5625C16.0756 21.2035 16.3302 21.8181 16.7834 22.2714C17.2366 22.7246 17.8513 22.9792 18.4922 22.9792C19.1332 22.9792 19.7479 22.7246 20.2011 22.2714C20.6543 21.8181 20.9089 21.2035 20.9089 20.5625C20.9089 19.9216 20.6543 19.3069 20.2011 18.8537C19.7479 18.4005 19.1332 18.1459 18.4922 18.1459ZM8.82556 20.5625C8.82556 21.2035 8.57095 21.8181 8.11774 22.2714C7.66452 22.7246 7.04983 22.9792 6.4089 22.9792C5.76796 22.9792 5.15327 22.7246 4.70005 22.2714C4.24684 21.8181 3.99223 21.2035 3.99223 20.5625C3.99223 19.9216 4.24684 19.3069 4.70005 18.8537C5.15327 18.4005 5.76796 18.1459 6.4089 18.1459C7.04983 18.1459 7.66452 18.4005 8.11774 18.8537C8.57095 19.3069 8.82556 19.9216 8.82556 20.5625Z" stroke="#A4A4A4" stroke-width="2" stroke-linecap="round" stroke-linejoin="round"/>
</svg>
